<svg width="71" height="28" viewBox="0 0 71 28" fill="none" xmlns="http://www.w3.org/2000/svg">
<g clip-path="url(#clip0_1480_133684)">
<path fill-rule="evenodd" clip-rule="evenodd" d="M43.8321 22.3325C42.3356 22.3325 41.2189 22.2913 39.7818 21.8474C38.9031 21.5819 38.1251 21.2753 37.3287 20.8451C36.7704 20.5476 36.2532 20.1952 35.7315 19.8565C35.5713 19.7375 35.4111 19.6277 35.2326 19.4904C34.0152 18.543 33.2784 17.8428 31.7406 18.6117C30.4043 19.2799 29.6674 21.1746 30.5461 22.6117C30.5873 22.6666 30.6239 22.7123 30.6651 22.7627C30.6651 22.7718 30.7063 22.8268 30.7246 22.8405L30.8024 22.9366C31.4798 23.6643 33.8139 25.2661 34.6697 25.7055L36.1663 26.4286C37.4614 26.9366 39.1182 27.527 40.4729 27.6414L41.2097 27.7421C41.4294 27.7833 41.2692 27.8199 41.4294 27.8199H44.8573C45.0175 27.8199 44.8756 27.7787 45.0953 27.7421L47.0312 27.4217C48.9259 26.9732 49.3424 26.7856 50.958 26.1265C51.2554 26.0075 51.5575 25.8611 51.855 25.7192C52.5323 25.3805 53.7085 24.7306 54.3264 24.3233C55.2646 23.6872 55.7039 23.3439 56.601 22.6849C57.3012 22.1586 58.2577 21.3988 58.2577 20.4286C58.2577 19.4721 58.0792 19.019 57.5209 18.2867C57.3195 18.003 57.1639 17.8611 56.8847 17.6735C56.0655 17.1655 54.9717 17.408 54.2714 17.8794C53.5346 18.3828 52.4774 19.2112 51.7772 19.6414C51.5575 19.7741 51.3378 19.9023 51.1181 20.035C49.8596 20.7856 48.0472 21.6094 46.633 21.9389C46.4729 21.9801 46.3356 21.9938 46.2166 22.035C46.0564 22.0762 45.8962 22.0899 45.736 22.122L43.823 22.3416L43.8321 22.3325Z" fill="#F29F05"/>
<path fill-rule="evenodd" clip-rule="evenodd" d="M11.7774 13.9027L10.7385 13.8478C10.5188 13.8158 10.1802 13.7288 9.94217 13.7288C9.94217 13.4634 9.96047 13.3215 10.0017 13.0881L10.139 11.7883C10.1802 11.3032 10.1207 11.3398 10.8163 11.3398C11.8552 11.3398 13.2099 11.5137 13.2099 12.5069C13.2099 12.9462 13.0314 13.2849 12.83 13.5183C12.592 13.7837 12.2534 13.9027 11.7728 13.9027H11.7774ZM10.4227 7.46797C10.4227 6.84097 10.4227 6.22312 10.4227 5.59612C10.4227 4.92336 10.4639 4.39704 10.4639 3.72885C11.4616 3.72885 12.1801 3.57325 12.9765 4.05837L13.274 4.31009C13.814 4.8364 13.9101 5.75173 13.2923 6.32381C12.8117 6.75401 12.0978 7.02861 11.5165 7.20252C11.338 7.24829 11.1779 7.29863 10.9994 7.3444L10.4227 7.46797ZM6.55545 3.86157H7.47078L6.93074 7.22998C6.87124 7.52746 6.85293 7.74714 6.79344 8.05378C6.77513 8.20938 6.77513 8.33753 6.73394 8.4611L5.69504 14.7814C5.67674 15.0148 5.65385 14.992 5.61724 15.1796L5.29688 17.3352C5.69504 17.3672 6.09321 17.4908 6.47307 17.5457L8.3678 17.7974C8.60579 17.8295 8.74766 17.8432 8.98565 17.8615C10.4593 17.9393 11.9376 18.0949 13.4341 17.5961C14.3495 17.2803 15.1092 16.6716 15.6675 15.889C16.0474 15.381 16.3266 14.7036 16.4868 14.0949C16.7064 13.2391 16.6881 12.9737 16.6881 12.0812C16.6881 11.6968 16.4868 11.0057 16.3312 10.6213C16.1115 10.1178 15.933 9.91647 15.5714 9.5C15.2923 9.17048 15.0131 9.06064 14.9536 8.85927C15.3929 8.74943 16.1298 7.8341 16.3678 7.33067C16.9261 6.21854 17.1641 4.11787 16.5691 2.85471C15.9925 1.6236 14.9536 1.05152 13.6355 0.744882C12.7797 0.55724 12.6195 0.644196 12.0383 0.566393L7.13211 0.204838C6.39527 0.213991 6.57376 -0.0239939 6.47307 0.657926L6.45477 3.52748C6.45477 3.74716 6.39527 3.86615 6.55545 3.86615V3.86157Z" fill="white"/>
<path fill-rule="evenodd" clip-rule="evenodd" d="M53.8273 9.29377C54.825 9.29377 55.2049 9.1702 55.8594 8.45625C56.0195 8.30064 56.0974 8.03519 56.2163 7.94824C56.2163 8.58897 56.1752 8.92764 55.9784 9.39903C55.777 9.86127 55.5802 10.0901 55.2598 10.4196C54.9623 10.7263 54.6832 10.9505 54.2621 11.1153C52.9669 11.6416 51.4887 11.4906 50.5138 10.5295C50.436 10.4334 50.3765 10.4196 50.2942 10.351C50.2347 10.2869 50.1935 10.2183 50.134 10.1405C48.8754 8.61185 49.2965 6.14962 51.2919 5.15649C52.0287 4.78578 53.0676 4.71713 53.8456 4.94596L54.047 5.04207C53.7083 5.04207 53.4292 5.09699 53.1683 5.20683C52.3125 5.55923 51.9097 6.17708 51.7907 7.05579C51.7724 7.33955 51.8502 7.72856 51.9509 7.93451C52.0516 8.18622 52.2118 8.44252 52.3903 8.61643C52.7701 8.96883 53.2873 9.3075 53.8273 9.3075V9.29377ZM44.3125 9.11986C44.3125 9.73313 44.3903 10.2091 44.5139 10.7491C44.6741 11.6096 45.1317 12.5203 45.6306 13.1885C47.0859 15.1153 49.2004 16.2045 51.6122 16.2045C53.6672 16.2045 55.1637 15.5226 56.5596 14.2777C56.6603 14.1999 56.6786 14.1908 56.7793 14.1038C57.8548 13.1153 58.8754 11.1473 58.8754 9.72398V8.59354C58.8754 7.76975 58.3948 6.47914 58.079 5.91163C57.8777 5.51804 57.6397 5.22056 57.3834 4.87731C56.3857 3.60043 54.6328 2.49288 53.0173 2.25032C52.6191 2.1954 51.7221 2.07641 51.3834 2.13133C51.063 2.17709 50.6466 2.17709 50.2072 2.25032C49.7495 2.31897 48.9303 2.59357 48.5322 2.76748C47.3377 3.29837 46.4361 4.14505 45.6397 5.12903C45.4017 5.42651 45.1409 5.88875 44.9807 6.2503C44.8022 6.60271 44.6237 7.08325 44.523 7.53634C44.4223 7.98943 44.3217 8.61185 44.3217 9.11986H44.3125Z" fill="#F29F05"/>
<path fill-rule="evenodd" clip-rule="evenodd" d="M38.8718 9.29502C39.4713 9.29502 39.9473 9.24926 40.4049 8.87397C40.6841 8.64514 41.0411 8.34308 41.1418 7.94949H41.2196C41.2196 8.40258 41.1006 9.07077 40.9587 9.38198C40.6017 10.1737 40.0434 10.7367 39.2425 11.1074C39.0411 11.2035 38.8031 11.2813 38.6063 11.327C37.2699 11.6474 35.8329 11.1303 35.0548 10.0731C33.4805 7.9861 34.9542 5.40945 36.7894 4.94721C37.4255 4.78245 37.9473 4.75957 38.5834 4.89229C38.8031 4.93806 38.8626 4.92433 38.9999 5.03417C38.1624 5.03417 37.3432 5.50556 36.9862 6.2424C36.5651 7.0662 36.7482 7.99068 37.3844 8.61768C37.7642 9.00212 38.2631 9.2996 38.858 9.2996L38.8718 9.29502ZM29.3203 8.98839C29.3203 10.5811 29.5995 11.5925 30.3775 12.8785C30.4553 12.9884 30.4965 13.0433 30.5789 13.1623L31.4347 14.1325C31.9336 14.6405 32.9313 15.3225 33.5491 15.5833C36.0205 16.6085 38.4965 16.3751 40.7482 14.9472C40.9267 14.8373 41.0686 14.6955 41.2287 14.5627C41.4301 14.4071 41.5491 14.311 41.7276 14.1325C41.8649 13.9815 42.0251 13.8488 42.1441 13.7023C42.2219 13.6154 42.2631 13.5467 42.3454 13.4598C43.2013 12.3843 43.6223 11.4049 43.8191 10.0181C43.9381 9.2401 43.8786 8.37054 43.7001 7.60166C43.2196 5.36826 41.1692 3.15775 38.9953 2.52159C38.7345 2.43464 38.5972 2.37972 38.2768 2.3248C37.7001 2.21496 36.8992 2.06393 36.3043 2.15088C36.0068 2.19207 35.7459 2.11885 35.0686 2.26988C34.1716 2.46667 33.3157 2.80077 32.556 3.31335C32.3775 3.43234 32.199 3.53303 32.0571 3.67491L31.3203 4.30191C30.1258 5.60167 29.3249 7.05247 29.3249 8.98839H29.3203Z" fill="#F29F05"/>
<path fill-rule="evenodd" clip-rule="evenodd" d="M18.0119 0.639164C17.9341 0.72612 17.9707 0.652894 17.9524 0.813076L17.8746 3.90231C17.8746 4.13572 17.8334 4.16318 17.8334 4.37828C17.8151 5.03732 17.8517 5.66432 17.7739 6.26843L17.6549 9.07391C17.6732 9.97551 17.5771 10.8771 17.5771 11.8565L17.3574 17.4675C17.3574 18.0624 17.1972 18.1952 17.4352 18.2501C17.5954 18.2821 19.0096 18.154 19.3116 18.154C19.632 18.154 20.0119 18.1769 20.3094 18.154C20.9272 18.1082 21.4672 18.067 22.1858 18.0762C22.5839 18.0762 23.3437 17.9801 23.9615 17.9801C24.3414 17.9892 24.5611 17.9343 24.8768 17.9389C25.1743 17.9389 25.5954 17.9618 25.8746 17.9297C26.0347 17.916 26.1125 17.8977 26.3139 17.8885L28.6251 17.8016C28.886 17.8107 29.0645 17.9206 28.9455 17.1654C28.9043 16.8817 28.9272 16.5247 28.886 16.2638C28.8265 15.7878 28.8677 15.321 28.8265 14.932L28.6663 12.7535C28.648 12.3691 28.4878 12.6208 27.9707 12.63L26.1949 12.8039C25.9157 12.8268 25.5954 12.8588 25.3162 12.8908L21.7464 13.2432C21.3894 13.2661 21.3894 13.4492 21.4856 12.749L21.9661 5.45837C21.9661 4.81764 22.1263 3.1792 22.1858 2.54305C22.227 2.09454 22.1858 2.09454 22.2636 1.43092C22.3231 0.872572 21.9844 1.11056 21.0691 0.959529C20.9089 0.936645 20.8311 0.904609 20.6709 0.890879C20.1309 0.858843 19.8151 0.790193 19.3528 0.735273L18.4558 0.634587C18.3368 0.620857 18.2544 0.602551 18.2178 0.602551C18.0805 0.588821 18.0805 0.561361 18.0165 0.634587L18.0119 0.639164Z" fill="white"/>
<path fill-rule="evenodd" clip-rule="evenodd" d="M58.3561 2.15697L58.7955 3.58946C59.2349 4.88465 59.7337 6.61462 60.1502 7.96931L61.0655 10.8846C61.5461 12.4224 62.0815 14.2851 62.5621 15.7267C62.6811 16.0654 62.7634 16.34 62.8596 16.6924L63.1799 17.6809L66.6078 17.3743L69.1799 6.76108C69.3996 6.03797 69.6604 4.70159 69.8984 3.85949C69.9167 3.77253 69.9167 3.70388 69.9396 3.60777L70.3561 1.89153C70.1776 1.80457 69.3584 1.70389 69.0609 1.6627C68.6444 1.61693 68.1822 1.48879 67.7428 1.45217L66.4476 4.90296C66.2875 5.29655 66.1685 5.70387 66.0083 6.07L65.1525 8.38121C64.9923 8.7748 64.8733 9.1272 64.7131 9.51621L64.3149 10.5917C64.2737 10.6695 64.2966 10.6329 64.2737 10.6695L63.4957 6.56886C63.4545 6.34002 63.4362 6.15238 63.395 5.94186C63.3767 5.84575 63.3767 5.76795 63.3355 5.64438L62.5987 1.80915C62.4385 1.05858 62.7177 1.24622 61.3813 1.47963L58.3516 2.14782L58.3561 2.15697Z" fill="white"/>
<path fill-rule="evenodd" clip-rule="evenodd" d="M0.560772 17.9004H2.73468C2.95436 17.9004 2.95436 17.8592 3.17403 17.8592C4.83078 17.8043 4.62941 18.056 4.56991 17.4199C4.51041 16.8386 4.56991 16.1201 4.52872 15.548C4.46922 14.9439 4.46922 14.3352 4.48753 13.6807C4.48753 13.31 4.42803 13.1315 4.42803 12.77L4.38684 10.8981C4.38684 10.8295 4.38684 10.7654 4.38684 10.6922C4.36854 10.5412 4.38684 10.651 4.38684 10.4954C4.40515 10.262 4.36854 10.2757 4.34565 10.0698C4.32735 9.76313 4.34565 9.41988 4.34565 9.1041C4.34565 8.8295 4.30446 8.72881 4.30446 8.19334L4.26327 6.80662C4.22209 6.60067 4.10309 6.68305 3.86511 6.6739C3.62712 6.66475 3.24726 6.60525 2.98639 6.58694C2.64772 6.57321 2.40974 6.55491 2.08937 6.54118C1.8285 6.53202 1.47152 6.47253 1.21066 6.45422C1.05047 6.44507 0.89029 6.46795 0.730108 6.44507C0.569925 6.43134 0.450933 6.33523 0.391436 6.50914C0.29075 6.7517 0.409743 8.10639 0.432626 8.36726C0.492122 9.36496 0.354823 11.4336 0.450933 12.2071C0.492123 12.4679 0.469239 12.8798 0.469239 13.1544C0.469239 13.4748 0.510429 13.6945 0.510429 14.0652V16.9347C0.510429 17.3192 0.551619 17.5205 0.551619 17.8912L0.560772 17.9004Z" fill="white"/>
<path fill-rule="evenodd" clip-rule="evenodd" d="M0 3.37681V3.5553C0 4.46605 1.0572 5.20289 1.99542 5.20289C2.71395 5.20289 3.2128 5.13424 3.78946 4.73149C4.06863 4.52097 4.56749 3.93973 4.56749 3.59649C4.56749 3.02441 4.60868 2.75896 4.21051 2.27384C3.03431 0.887115 0.183066 1.66972 0.00457664 3.23036V3.38138L0 3.37681Z" fill="white"/>
</g>
<defs>
<clipPath id="clip0_1480_133684">
<rect width="70.3567" height="27.6495" fill="white" transform="translate(0 0.171875)"/>
</clipPath>
</defs>
</svg>
